<svg width="14" height="8" viewBox="0 0 14 8" fill="none" xmlns="http://www.w3.org/2000/svg">
<path d="M12.8333 0.698328C12.6147 0.481035 12.319 0.35907 12.0108 0.35907C11.7026 0.35907 11.4069 0.481035 11.1883 0.698328L6.99998 4.82833L2.86998 0.698328C2.65139 0.481035 2.3557 0.35907 2.04748 0.35907C1.73926 0.35907 1.44357 0.481035 1.22498 0.698328C1.11563 0.806785 1.02884 0.935819 0.969607 1.07799C0.910377 1.22016 0.879883 1.37265 0.879883 1.52666C0.879883 1.68068 0.910377 1.83317 0.969607 1.97533C1.02884 2.1175 1.11563 2.24654 1.22498 2.35499L6.17165 7.30166C6.2801 7.41101 6.40914 7.4978 6.55131 7.55703C6.69348 7.61626 6.84597 7.64676 6.99998 7.64676C7.15399 7.64676 7.30649 7.61626 7.44865 7.55703C7.59082 7.4978 7.71986 7.41101 7.82831 7.30166L12.8333 2.35499C12.9427 2.24654 13.0295 2.1175 13.0887 1.97533C13.1479 1.83317 13.1784 1.68068 13.1784 1.52666C13.1784 1.37265 13.1479 1.22016 13.0887 1.07799C13.0295 0.935819 12.9427 0.806785 12.8333 0.698328Z" fill="black"/>
</svg>
