<svg width="92" height="92" viewBox="0 0 92 92" fill="none" xmlns="http://www.w3.org/2000/svg">
<rect width="91.5618" height="91.5618" rx="20" fill="black"/>
<path d="M49.0769 47.0045C49.0769 54.8437 42.6153 61.2092 34.6107 61.2092C26.6061 61.2092 20.1445 54.8437 20.1445 47.0045C20.1445 39.1653 26.6061 32.7998 34.6107 32.7998C42.6153 32.7998 49.0769 39.1653 49.0769 47.0045ZM64.9254 47.0045C64.9254 54.3734 61.6786 60.3626 57.6923 60.3626C53.7061 60.3626 50.4592 54.3734 50.4592 47.0045C50.4592 39.6356 53.7061 33.6464 57.6923 33.6464C61.6786 33.6464 64.9254 39.6043 64.9254 47.0045ZM71.4191 47.0045C71.4191 53.6208 70.294 58.9829 68.8795 58.9829C67.4651 58.9829 66.3399 53.6208 66.3399 47.0045C66.3399 40.3882 67.4651 35.0261 68.8795 35.0261C70.294 35.0261 71.4191 40.3882 71.4191 47.0045Z" fill="white"/>
</svg>
